<?xml version="1.0" encoding="UTF-8"?>
<svg version="1.1" xmlns="http://www.w3.org/2000/svg" width="512" height="512">
<path d="M0 0 C13.13552968 10.43389592 22.93367127 21.95470233 30.87890625 36.625 C31.27287598 37.3463916 31.6668457 38.0677832 32.07275391 38.81103516 C34.19321125 42.84037015 35.55507411 46.27085096 36.00390625 50.875 C37.02871094 50.42060547 37.02871094 50.42060547 38.07421875 49.95703125 C45.20506837 46.99344285 52.29973044 44.91292767 59.81640625 43.1875 C61.11118896 42.88453003 61.11118896 42.88453003 62.43212891 42.57543945 C76.52466259 39.45745017 90.49511344 38.46287037 104.87890625 38.5 C106.08063477 38.50081573 106.08063477 38.50081573 107.30664062 38.50164795 C151.28224389 38.63787293 194.11957382 52.90154567 229.00390625 79.875 C229.56980469 80.31247559 230.13570313 80.74995117 230.71875 81.20068359 C245.53227297 92.83924586 259.03345431 106.56162421 270.00390625 121.875 C270.41656738 122.44331543 270.82922852 123.01163086 271.25439453 123.59716797 C295.83374031 157.77078896 308.21881714 198.72503183 308.25390625 240.625 C308.25458099 241.3528772 308.25525574 242.08075439 308.25595093 242.83068848 C308.23756622 255.37971215 307.43655878 267.53611173 305.00390625 279.875 C304.8322998 280.7501123 304.66069336 281.62522461 304.48388672 282.52685547 C296.87839894 319.94259291 278.81146921 353.79874626 252.46337891 381.34814453 C251.47882198 382.37815775 250.49942485 383.41312459 249.52490234 384.45263672 C237.38055184 397.37491715 223.48676553 408.19995074 208.00390625 416.875 C207.27816406 417.28959473 206.55242187 417.70418945 205.8046875 418.13134766 C174.9691458 435.60524048 141.27117282 444.35311978 105.87890625 444.1875 C104.66184494 444.18476578 104.66184494 444.18476578 103.42019653 444.18197632 C90.74195029 444.134128 78.43599511 443.55207796 66.00390625 440.875 C65.18792969 440.70339355 64.37195313 440.53178711 63.53125 440.35498047 C44.74308525 436.2931651 26.88789143 430.07026437 10.00390625 420.875 C9.40384766 420.55418457 8.80378906 420.23336914 8.18554688 419.90283203 C-1.07581312 414.93128955 -9.60411154 409.18412751 -17.99609375 402.875 C-18.84558594 402.24078125 -19.69507813 401.6065625 -20.5703125 400.953125 C-31.15908187 392.76214308 -41.66773721 383.3888118 -49.99609375 372.875 C-51.10791016 371.50214844 -51.10791016 371.50214844 -52.2421875 370.1015625 C-62.90724182 356.73272137 -71.8947113 342.43161259 -78.99609375 326.875 C-79.33237793 326.14587402 -79.66866211 325.41674805 -80.01513672 324.66552734 C-98.84581992 283.38661775 -105.83438521 229.42745495 -89.99609375 185.875 C-89.66609375 185.545 -89.33609375 185.215 -88.99609375 184.875 C-90.45015625 184.38193359 -90.45015625 184.38193359 -91.93359375 183.87890625 C-119.53599741 174.21684808 -141.81508008 156.52162456 -154.97265625 129.98828125 C-166.81680197 104.87313314 -168.52282675 76.29941667 -159.5390625 49.96484375 C-149.24937958 21.68686875 -128.62745559 1.15818373 -101.7890625 -11.65625 C-68.54139263 -25.65526889 -29.28728078 -20.77220436 0 0 Z " fill="#C1D0EF" transform="translate(183.99609375,43.125)"/>
<path d="M0 0 C20.78253794 16.50811524 34.39358736 36.96925921 40.00390625 62.875 C40.24882812 64.00550781 40.49375 65.13601562 40.74609375 66.30078125 C44.64512323 87.7454434 41.71658808 111.04144202 31.12890625 130.1875 C29.12188171 134.14365413 28.21364968 137.06221305 29.05078125 141.47265625 C32.44635937 150.03118307 39.89347857 156.97949281 46.10009766 163.63574219 C54.18873983 172.32172611 54.18873983 172.32172611 56.00390625 175.875 C55.00390625 178.875 55.00390625 178.875 53.125 179.82421875 C37.09216657 184.23499825 19.7173836 182.60441332 3.63769531 179.29858398 C-4.66329032 177.65027056 -11.03605767 177.875 -19.99609375 177.875 C-19.99609375 157.085 -19.99609375 136.295 -19.99609375 114.875 C-18.01609375 115.205 -16.03609375 115.535 -13.99609375 115.875 C-12.20541569 115.93805204 -10.41271796 115.96171114 -8.62109375 115.9375 C-7.31011719 115.92396484 -7.31011719 115.92396484 -5.97265625 115.91015625 C-5.32039062 115.89855469 -4.668125 115.88695312 -3.99609375 115.875 C-3.66228561 112.50063814 -3.66228561 112.50063814 -3.99609375 108.875 C-6.86539011 105.54661622 -10.84466016 104.9128584 -14.99609375 103.875 C-11.99609375 94.875 -11.99609375 94.875 -10.921875 92.00390625 C-7.58619865 80.73016466 -10.23613251 69.27510996 -14.99609375 58.875 C-21.5443551 47.46273078 -31.53952033 39.83230322 -41.9609375 32.140625 C-45.02058477 29.85671841 -48.02091973 27.51781639 -50.99609375 25.125 C-51.86234375 24.42890625 -52.72859375 23.7328125 -53.62109375 23.015625 C-55.99609375 20.875 -55.99609375 20.875 -58.12109375 18.109375 C-58.73984375 17.37203125 -59.35859375 16.6346875 -59.99609375 15.875 C-62.99650306 15.5224224 -62.99650306 15.5224224 -64.50610352 17.37670898 C-65.04033936 18.05548096 -65.5745752 18.73425293 -66.125 19.43359375 C-69.93602862 23.97901329 -74.19336087 27.40532647 -78.93359375 30.9375 C-84.82681319 35.3811574 -90.49130859 39.95724582 -95.99609375 44.875 C-96.75019531 45.51566406 -97.50429687 46.15632813 -98.28125 46.81640625 C-105.31247093 53.22949787 -111.33083991 63.26908401 -112.1730957 72.89868164 C-112.59623666 86.19215947 -112.59623666 86.19215947 -108.87109375 98.84375 C-107.99609375 100.875 -107.99609375 100.875 -107.99609375 103.875 C-111.29609375 104.865 -114.59609375 105.855 -117.99609375 106.875 C-118.03734375 108.15375 -118.07859375 109.4325 -118.12109375 110.75 C-118.14429688 111.46929687 -118.1675 112.18859375 -118.19140625 112.9296875 C-118.17941064 115.11363645 -118.17941064 115.11363645 -115.99609375 116.875 C-112.69133327 116.59423208 -112.69133327 116.59423208 -108.99609375 115.875 C-106.68609375 115.545 -104.37609375 115.215 -101.99609375 114.875 C-101.99609375 136.325 -101.99609375 157.775 -101.99609375 179.875 C-120.49242571 170.62683402 -120.49242571 170.62683402 -125.49609375 166.375 C-126.06811523 165.90489502 -126.64013672 165.43479004 -127.22949219 164.95043945 C-128.83753316 163.61245988 -130.42092813 162.25141491 -131.99609375 160.875 C-133.13304687 159.89080078 -133.13304687 159.89080078 -134.29296875 158.88671875 C-153.20909423 141.21905755 -164.23360655 114.28253459 -165.1796875 88.71484375 C-165.84939807 59.10693931 -155.56367816 32.99599803 -135.453125 11.34375 C-99.46417768 -24.81684571 -41.56973479 -29.48361894 0 0 Z " fill="#DCF0EB" transform="translate(183.99609375,43.125)"/>
<path d="M0 0 C3.39794746 0.56080425 4.69133596 1.44127474 6.74609375 4.171875 C10.05937097 8.24624034 13.84103218 11.16467557 18.0625 14.25 C19.57337439 15.38307388 21.08246962 16.51852372 22.58984375 17.65625 C23.33347168 18.21699219 24.07709961 18.77773437 24.84326172 19.35546875 C35.66961777 27.61065715 45.73417525 36.07922631 51 49 C51.2990625 49.72445312 51.598125 50.44890625 51.90625 51.1953125 C56.33784328 63.62839365 54.54778054 75.30418725 49 87 C48.67 87.66 48.34 88.32 48 89 C49.051875 89.0825 50.10375 89.165 51.1875 89.25 C55.37162859 90.07310726 57.25386595 90.73896582 60 94 C59.9375 97.6875 59.9375 97.6875 59 101 C55.83001691 102.58499154 52.44594175 102.4784448 49 102 C46.69 101.01 44.38 100.02 42 99 C42 120.45 42 141.9 42 164 C30.66213152 168.53514739 30.66213152 168.53514739 26.3125 169.6875 C25.46300781 169.91824219 24.61351562 170.14898437 23.73828125 170.38671875 C16.33946943 172.04379928 9.17100009 172.15169576 1.625 172.125 C0.53960937 172.12886719 -0.54578125 172.13273438 -1.6640625 172.13671875 C-10.73326713 172.1257656 -19.05940611 171.45134643 -27.8125 169.0625 C-29.70935547 168.55396484 -29.70935547 168.55396484 -31.64453125 168.03515625 C-35 167 -35 167 -39 165 C-39 143.55 -39 122.1 -39 100 C-41.97 100.99 -44.94 101.98 -48 103 C-51.02853357 103.39502612 -52.2413199 103.47090489 -54.8125 101.875 C-56.55198782 99.12844028 -56.39769128 97.18153026 -56 94 C-53.93632417 91.41241885 -51.90813809 90.37821147 -48.8125 89.3125 C-48.09707031 89.06113281 -47.38164063 88.80976563 -46.64453125 88.55078125 C-46.10183594 88.36902344 -45.55914062 88.18726563 -45 88 C-45.27714844 87.39671875 -45.55429688 86.7934375 -45.83984375 86.171875 C-46.20207031 85.37265625 -46.56429687 84.5734375 -46.9375 83.75 C-47.29714844 82.96109375 -47.65679687 82.1721875 -48.02734375 81.359375 C-51.78727278 72.23890458 -51.53932543 59.10537668 -48.375 49.875 C-47.63828751 48.22435897 -46.84882064 46.59588992 -46 45 C-45.62230469 44.27296875 -45.24460937 43.5459375 -44.85546875 42.796875 C-37.63008117 30.65997018 -25.9996854 22.0190773 -14.70117188 13.98120117 C-8.97273627 9.86169965 -4.19878363 5.72974805 0 0 Z " fill="#327995" transform="translate(121,58)"/>
<path d="M0 0 C3.39794746 0.56080425 4.69133596 1.44127474 6.74609375 4.171875 C10.05937097 8.24624034 13.84103218 11.16467557 18.0625 14.25 C19.57337439 15.38307388 21.08246962 16.51852372 22.58984375 17.65625 C23.33347168 18.21699219 24.07709961 18.77773437 24.84326172 19.35546875 C35.66961777 27.61065715 45.73417525 36.07922631 51 49 C51.2990625 49.72445312 51.598125 50.44890625 51.90625 51.1953125 C55.94859871 62.53634638 54.8954049 73.53811643 50.2890625 84.48828125 C49 87 49 87 47 89 C45.13989258 88.87573242 45.13989258 88.87573242 42.89453125 88.35546875 C42.07533203 88.17306641 41.25613281 87.99066406 40.41210938 87.80273438 C39.55423828 87.59970703 38.69636719 87.39667969 37.8125 87.1875 C36.13199421 86.80386417 34.45100971 86.42231869 32.76953125 86.04296875 C32.02292236 85.86789795 31.27631348 85.69282715 30.50708008 85.51245117 C24.29049106 84.24177045 18.25803267 83.8206389 11.9375 83.76171875 C10.64548172 83.74743584 10.64548172 83.74743584 9.32736206 83.73286438 C6.55154097 83.70844554 3.77591396 83.69588156 1 83.6875 C0.06013245 83.68355225 -0.87973511 83.67960449 -1.8480835 83.67553711 C-16.29843328 83.64711161 -29.91049362 84.53181381 -44 88 C-51.0601448 78.35113544 -51.00942858 67.54281587 -50 56 C-49.17866903 51.97734493 -47.92401717 48.61739506 -46 45 C-45.62230469 44.27296875 -45.24460937 43.5459375 -44.85546875 42.796875 C-37.63008117 30.65997018 -25.9996854 22.0190773 -14.70117188 13.98120117 C-8.97273627 9.86169965 -4.19878363 5.72974805 0 0 Z " fill="#76D881" transform="translate(121,58)"/>
<path d="M0 0 C3.32507833 0.48490726 4.00042524 0.86044067 6 3.4375 C6.28085591 6.52608346 6.3785318 9.4107112 6.34057617 12.4987793 C6.34123329 13.88932022 6.34123329 13.88932022 6.34190369 15.30795288 C6.33981148 18.37608812 6.3164599 21.44367882 6.29296875 24.51171875 C6.28737434 26.6373515 6.28310351 28.76298811 6.28010559 30.8886261 C6.26864468 36.4864874 6.23916665 42.08411563 6.20599365 47.68188477 C6.17531969 53.39270881 6.16160597 59.10357047 6.14648438 64.81445312 C6.11429826 76.02223789 6.06308675 87.22984957 6 98.4375 C6.77214844 98.56898438 7.54429687 98.70046875 8.33984375 98.8359375 C12.36649871 99.74651733 14.8730999 101.7490343 17.16796875 105.1875 C18.53634516 107.55869378 19.7758921 109.98928419 21 112.4375 C21.56740906 112.44114563 22.13481812 112.44479126 22.71942139 112.44854736 C28.62456232 112.49035446 34.5289247 112.55968686 40.43359375 112.64501953 C42.63729059 112.6732471 44.841089 112.6944527 47.04492188 112.70849609 C50.21276932 112.72990047 53.37939308 112.77653898 56.546875 112.828125 C57.53242371 112.82935364 58.51797241 112.83058228 59.53338623 112.83184814 C66.34958942 112.97783828 66.34958942 112.97783828 69.65722656 115.31542969 C71 117.4375 71 117.4375 70.9375 120 C69.92706967 122.62711885 69.18743204 123.70523983 67 125.4375 C64.8818512 125.79585266 64.8818512 125.79585266 62.40844727 125.7746582 C61.01669029 125.77530022 61.01669029 125.77530022 59.59681702 125.7759552 C58.59678146 125.7635228 57.59674591 125.75109039 56.56640625 125.73828125 C54.45247083 125.74592227 52.33853833 125.75441198 50.22460938 125.76367188 C46.88868599 125.76145858 43.55334371 125.74992448 40.2175293 125.72241211 C36.99988356 125.7017359 33.7840152 125.7176994 30.56640625 125.73828125 C29.56839493 125.71977615 28.57038361 125.70127106 27.54212952 125.6822052 C24.89338098 125.71032744 22.56758879 125.78441974 20 126.4375 C17.34177413 129.21593482 17.34177413 129.21593482 16 132.4375 C11.63493549 137.03700531 7.11896295 139.45456914 0.8125 139.875 C-4.86616789 139.70463996 -9.44388333 137.78894854 -14 134.4375 C-18.94913924 128.80710273 -21.48745903 123.2923218 -21.33203125 115.71875 C-20.66253294 111.1189028 -18.87289849 107.06702324 -16 103.4375 C-15.2982515 103.16524597 -14.59650299 102.89299194 -13.87348938 102.61248779 C-10.72345823 101.27805038 -9.1395968 100.14065183 -7 97.4375 C-5.18901936 90.78994661 -5.88973155 83.46698848 -6.0078125 76.6484375 C-6.00977767 74.58151203 -6.00734355 72.51457809 -6.0007019 70.44766235 C-5.99307747 65.01357217 -6.03653923 59.58115433 -6.09332275 54.1473999 C-6.1759946 45.44391787 -6.1826313 36.74011395 -6.18636703 28.03630447 C-6.19521085 24.99588254 -6.22665591 21.95632941 -6.26150513 18.91610718 C-6.27133944 17.05523932 -6.28071298 15.19436895 -6.28955078 13.33349609 C-6.30512527 12.48768478 -6.32069977 11.64187347 -6.33674622 10.77043152 C-6.33876378 7.41274397 -6.24938265 4.91142483 -4.66940308 1.90884399 C-3 0.4375 -3 0.4375 0 0 Z " fill="#5CC57A" transform="translate(289,166.5625)"/>
<path d="M0 0 C3.0625 0.3125 3.0625 0.3125 4.73135853 1.58644581 C7.09622479 4.65290224 6.44928597 8.56241759 6.40307617 12.28198242 C6.40351425 13.19925613 6.40395233 14.11652985 6.40440369 15.06159973 C6.40231158 18.09727166 6.37896051 21.13239315 6.35546875 24.16796875 C6.3498743 26.27118122 6.34560349 28.37439759 6.34260559 30.47761536 C6.33114497 36.01629407 6.30166719 41.5547372 6.26849365 47.09332275 C6.23781907 52.74382337 6.22410584 58.39436201 6.20898438 64.04492188 C6.17679876 75.13421816 6.1255876 86.2233395 6.0625 97.3125 C2.4325 97.3125 -1.1975 97.3125 -4.9375 97.3125 C-4.98376496 84.96059568 -5.01933941 72.60871186 -5.04112434 60.25673866 C-5.05157805 54.521714 -5.06576612 48.78674845 -5.08837891 43.05175781 C-5.1100508 37.52101431 -5.12205666 31.99032781 -5.12725449 26.45954514 C-5.13096043 24.34554522 -5.13819682 22.23154855 -5.14896011 20.11757278 C-5.16339992 17.16506365 -5.1654811 14.21279245 -5.16455078 11.26025391 C-5.17174133 10.3791243 -5.17893188 9.49799469 -5.18634033 8.59016418 C-5.15877706 0.54880607 -5.15877706 0.54880607 0 0 Z " fill="#315775" transform="translate(288.9375,166.6875)"/>
<path d="M0 0 C6.4777286 -0.10140493 12.95525261 -0.17146717 19.43359375 -0.21972656 C21.6374476 -0.23984419 23.84124807 -0.26714172 26.04492188 -0.30175781 C29.21237356 -0.35026833 32.37911968 -0.37296736 35.546875 -0.390625 C36.53242371 -0.41127014 37.51797241 -0.43191528 38.53338623 -0.45318604 C45.3508608 -0.45542328 45.3508608 -0.45542328 48.65722656 1.86425781 C50 4 50 4 49.9375 6.5625 C48.92638176 9.19140742 48.19097628 10.26863644 46 12 C43.85493469 12.36076355 43.85493469 12.36076355 41.3449707 12.34057617 C40.40422195 12.34034958 39.46347321 12.34012299 38.49421692 12.33988953 C36.97534126 12.31666374 36.97534126 12.31666374 35.42578125 12.29296875 C34.38681198 12.28872391 33.34784271 12.28447906 32.27738953 12.28010559 C28.95549724 12.26329849 25.63420925 12.22564196 22.3125 12.1875 C20.06185771 12.17245582 17.81120593 12.15876695 15.56054688 12.14648438 C10.04015803 12.11338836 4.52012218 12.06316869 -1 12 C-0.9278125 11.21753906 -0.855625 10.43507813 -0.78125 9.62890625 C-0.6884375 8.61699219 -0.595625 7.60507812 -0.5 6.5625 C-0.4071875 5.55316406 -0.314375 4.54382813 -0.21875 3.50390625 C-0.05845072 1.75417336 -0.05845072 1.75417336 0 0 Z " fill="#2F5471" transform="translate(310,280)"/>
<path d="M0 0 C2.508221 2.508221 2.25629767 4.06153943 2.30354309 7.48594666 C2.30263168 8.2317952 2.30172028 8.97764374 2.30078125 9.74609375 C2.30506638 10.51301041 2.3093515 11.27992706 2.31376648 12.07008362 C2.31951323 13.69327812 2.32000749 15.31649838 2.31567383 16.93969727 C2.3125166 19.42443794 2.33595754 21.90798502 2.36132812 24.39257812 C2.36360136 25.9687485 2.3643045 27.54492207 2.36328125 29.12109375 C2.372491 29.86491806 2.38170074 30.60874237 2.39118958 31.37510681 C2.34515017 36.50505723 2.34515017 36.50505723 0.62963867 38.96508789 C-1.77115058 40.48972394 -3.21267377 40.47588497 -6 40 C-8.12915039 38.44165039 -8.12915039 38.44165039 -10 36 C-10.38622515 33.35506254 -10.53894865 31.13506034 -10.49609375 28.49609375 C-10.49754898 27.77639908 -10.49900421 27.05670441 -10.50050354 26.31520081 C-10.4988476 24.79806457 -10.48732026 23.28091101 -10.46655273 21.76391602 C-10.4375499 19.44149559 -10.4459572 17.12135247 -10.45898438 14.79882812 C-10.4527479 13.32290558 -10.44435766 11.84699022 -10.43359375 10.37109375 C-10.43652939 9.67729111 -10.43946503 8.98348846 -10.44248962 8.2686615 C-10.38688649 5.43003189 -10.30221776 3.44973487 -8.69555664 1.05883789 C-5.85591548 -0.71445566 -3.23922724 -0.2944752 0 0 Z " fill="#365B7A" transform="translate(293,423)"/>
<path d="M0 0 C0.76787338 -0.00287018 1.53574677 -0.00574036 2.32688904 -0.00869751 C3.94832091 -0.01073727 5.56977743 -0.0052135 7.19116211 0.00732422 C9.67812821 0.02340217 12.16347462 0.00746245 14.65039062 -0.01171875 C16.22526401 -0.00973673 17.80013639 -0.00589391 19.375 0 C20.49377281 -0.00910904 20.49377281 -0.00910904 21.63514709 -0.0184021 C23.72875977 0.01025391 23.72875977 0.01025391 27.12109375 0.3984375 C29.12109375 3.3984375 29.12109375 3.3984375 28.93359375 6.9609375 C28.12109375 10.3984375 28.12109375 10.3984375 25.12109375 12.3984375 C20.5701832 12.80973723 16.00984552 12.77004072 11.44262695 12.76904297 C9.19470445 12.77341589 6.94874696 12.80974119 4.70117188 12.84765625 C3.26953795 12.85352487 1.83789472 12.85749396 0.40625 12.859375 C-0.8943335 12.86759277 -2.19491699 12.87581055 -3.53491211 12.88427734 C-6.87890625 12.3984375 -6.87890625 12.3984375 -9.30688477 10.52978516 C-10.87890625 8.3984375 -10.87890625 8.3984375 -11.31640625 5.8359375 C-10.18455706 -0.47007944 -5.46502479 -0.04461728 0 0 Z " fill="#497294" transform="translate(121.87890625,278.6015625)"/>
<path d="M0 0 C0.76691666 -0.0066568 1.53383331 -0.0133136 2.32398987 -0.02017212 C3.94716999 -0.03030365 5.57039181 -0.03498898 7.19360352 -0.03466797 C9.67859463 -0.03903996 12.1618079 -0.07534726 14.64648438 -0.11328125 C16.22265017 -0.11914957 17.79882441 -0.12311886 19.375 -0.125 C20.11882431 -0.13937103 20.86264862 -0.15374207 21.62901306 -0.16854858 C24.95712517 -0.1390422 26.76632367 -0.12045935 29.25024414 2.20458984 C30.25390625 4.3359375 30.25390625 4.3359375 30.19140625 6.8984375 C29.01670551 9.95265942 28.08153306 10.70581876 25.25390625 12.3359375 C22.01757812 12.72412109 22.01757812 12.72412109 18.22265625 12.734375 C17.54972534 12.73724518 16.87679443 12.74011536 16.18347168 12.74307251 C14.76472123 12.74510846 13.34594241 12.73961132 11.92724609 12.72705078 C9.76075225 12.71098826 7.59612361 12.72691304 5.4296875 12.74609375 C4.04817298 12.74411123 2.66665962 12.74026737 1.28515625 12.734375 C0.03283203 12.73099121 -1.21949219 12.72760742 -2.50976562 12.72412109 C-5.94762809 12.31176433 -7.3977964 11.85290109 -9.74609375 9.3359375 C-10.12109375 5.7734375 -10.12109375 5.7734375 -9.74609375 2.3359375 C-6.85299434 -0.55716191 -3.87703543 0.01156926 0 0 Z " fill="#254660" transform="translate(437.74609375,278.6640625)"/>
<path d="M0 0 C2.875 0.875 2.875 0.875 4.875 2.875 C5.08684648 5.4207356 5.17898808 7.85500638 5.17578125 10.40234375 C5.18006638 11.14706436 5.1843515 11.89178497 5.18876648 12.65907288 C5.19451282 14.23518863 5.1950078 15.8113309 5.19067383 17.38745117 C5.18751665 19.79977692 5.21095756 22.21087312 5.23632812 24.62304688 C5.23860137 26.15364428 5.23930449 27.684245 5.23828125 29.21484375 C5.247491 29.93679428 5.25670074 30.65874481 5.26618958 31.40257263 C5.23916124 34.32733536 5.21959434 36.37137181 3.53979492 38.82641602 C0.88498681 40.49856748 -1.07676827 40.31953379 -4.125 39.875 C-6.64679213 37.4840993 -7.1068936 36.02413987 -7.52905273 32.546875 C-7.53880127 31.25265625 -7.5485498 29.9584375 -7.55859375 28.625 C-7.5638356 27.92987305 -7.56907745 27.23474609 -7.57447815 26.51855469 C-7.58088529 25.05274793 -7.57957822 23.58688967 -7.57104492 22.12109375 C-7.56252617 19.88188013 -7.59132168 17.64521228 -7.62304688 15.40625 C-7.62465891 13.97916743 -7.62408131 12.55208035 -7.62109375 11.125 C-7.62387329 9.18367188 -7.62387329 9.18367188 -7.62670898 7.203125 C-7.125 3.875 -7.125 3.875 -5.28930664 1.4140625 C-3.125 -0.125 -3.125 -0.125 0 0 Z " fill="#365C79" transform="translate(290.125,106.125)"/>
<path d="M0 0 C1.8125 1.125 1.8125 1.125 3 3 C3.52429719 8.08276996 2.30854469 10.93043153 -0.3125 15.25 C-0.92738281 16.28640625 -1.54226562 17.3228125 -2.17578125 18.390625 C-4 21 -4 21 -7 23 C-9.78758532 22.7909311 -11.50703708 22.33997443 -13.8125 20.75 C-15.48982336 18.27815505 -15.33439097 16.97236419 -15 14 C-13.78588024 11.61693704 -12.57167473 9.47757874 -11.125 7.25 C-10.76019531 6.66089844 -10.39539063 6.07179688 -10.01953125 5.46484375 C-7.10130138 0.84873468 -5.53020082 -0.53953179 0 0 Z " fill="#406788" transform="translate(212,417)"/>
<path d="M0 0 C1.9375 1.1875 1.9375 1.1875 3 3 C3.2890625 5.421875 3.2890625 5.421875 3 8 C1.49609375 9.66015625 1.49609375 9.66015625 -0.5625 11.0625 C-1.29210937 11.56007813 -2.02171875 12.05765625 -2.7734375 12.5703125 C-3.50820312 13.04210937 -4.24296875 13.51390625 -5 14 C-5.63164062 14.43054688 -6.26328125 14.86109375 -6.9140625 15.3046875 C-9.62551092 17.03666997 -11.4995215 18.01137451 -14.75 17.9375 C-17.23431724 16.90236782 -18.48540483 16.23203499 -20 14 C-20.3046875 11.5859375 -20.3046875 11.5859375 -20 9 C-18.42578125 7.3046875 -18.42578125 7.3046875 -16.3125 5.875 C-15.57773438 5.37484375 -14.84296875 4.8746875 -14.0859375 4.359375 C-13.39757812 3.91078125 -12.70921875 3.4621875 -12 3 C-11.154375 2.38125 -10.30875 1.7625 -9.4375 1.125 C-6.10950364 -0.41099832 -3.61831551 -0.40203506 0 0 Z " fill="#477092" transform="translate(154,359)"/>
<path d="M0 0 C1.6953125 1.57421875 1.6953125 1.57421875 3.125 3.6875 C3.62515625 4.42226563 4.1253125 5.15703125 4.640625 5.9140625 C5.08921875 6.60242188 5.5378125 7.29078125 6 8 C6.61875 8.845625 7.2375 9.69125 7.875 10.5625 C9.41099832 13.89049636 9.40203506 16.38168449 9 20 C7.8125 21.9375 7.8125 21.9375 6 23 C3.58203125 23.296875 3.58203125 23.296875 1 23 C-0.6953125 21.42578125 -0.6953125 21.42578125 -2.125 19.3125 C-2.62515625 18.57773437 -3.1253125 17.84296875 -3.640625 17.0859375 C-4.08921875 16.39757812 -4.5378125 15.70921875 -5 15 C-5.61875 14.154375 -6.2375 13.30875 -6.875 12.4375 C-8.41099832 9.10950364 -8.40203506 6.61831551 -8 3 C-5.92488193 -0.38571896 -3.78311752 -0.43497266 0 0 Z " fill="#2C4F6B" transform="translate(372,417)"/>
<path d="M0 0 C3.17578125 1.49609375 3.17578125 1.49609375 6.3125 3.4375 C7.36050781 4.07558594 8.40851563 4.71367187 9.48828125 5.37109375 C12 7 12 7 13 8 C13.45818182 14.18545455 13.45818182 14.18545455 11.875 17 C10 18 10 18 7.4375 18.0625 C1.47925126 16.22085948 -4.93409819 12.85829801 -9 8 C-9.42822025 5.14519831 -9.40659584 3.65507108 -7.875 1.1875 C-5.11752567 -0.55890041 -3.23106363 -0.28498058 0 0 Z " fill="#244661" transform="translate(431,359)"/>
<path d="M0 0 C2 2 2 2 2.6875 5.25 C2 9 2 9 0.12890625 10.72265625 C-2.19826712 12.27792647 -4.53206584 13.68022726 -7 15 C-7.69480469 15.37898438 -8.38960938 15.75796875 -9.10546875 16.1484375 C-11.8612117 17.38710134 -14.02125769 17.31688748 -17 17 C-19.4664769 15.43789797 -19.89160004 14.45768871 -20.5625 11.625 C-19.5527754 6.91295187 -15.56567427 5.02730207 -11.7734375 2.5390625 C-4.94318689 -1.5956377 -4.94318689 -1.5956377 0 0 Z " fill="#244660" transform="translate(442,193)"/>
<path d="M0 0 C2.4375 0.75 2.4375 0.75 4.4375 2.75 C5.68628757 9.2714462 2.73942104 13.06092026 -0.8359375 18.39453125 C-2.5625 20.75 -2.5625 20.75 -4.5625 22.75 C-7.33707104 23.10571424 -8.94146796 23.11405327 -11.375 21.6875 C-12.76018704 19.42745799 -13.21773731 17.58063667 -13.12109375 14.92578125 C-11.66752425 9.26397557 -6.6634253 -0.65009027 0 0 Z " fill="#2B4E6A" transform="translate(376.5625,129.25)"/>
</svg>
